<?xml version="1.0" encoding="utf-8"?>
<!-- Generator: Adobe Illustrator 24.0.2, SVG Export Plug-In . SVG Version: 6.00 Build 0)  -->
<svg version="1.1" id="레이어_1" xmlns="http://www.w3.org/2000/svg" xmlns:xlink="http://www.w3.org/1999/xlink" x="0px"
	 y="0px" viewBox="0 0 24 24" style="enable-background:new 0 0 24 24;" xml:space="preserve">
<g>
	<path d="M13.6,12.6c-4.8-0.9-6.7,3.9-6.7,3.9c-1,2.5-3,2.7-3,2.7c5.6,4.9,10.4-0.4,10.4-0.4c0.4,0.9-1.6,2-1.6,2s3.7,0.3,4.5-3.3
		C18.1,13.8,13.6,12.6,13.6,12.6L13.6,12.6z"/>
	<path d="M13.8,10.4c-2.1-0.5-2.2,1.3-2.2,1.3c2.6-0.3,4.2,1,4.2,1C16,12,15.8,10.9,13.8,10.4L13.8,10.4z"/>
	<path d="M15.3,3l-1.8,6.3c0,0,0.9,0.9,2,0.4l1.8-6.3C17.3,3.5,16.4,2.3,15.3,3L15.3,3z"/>
	<path d="M2.7,18.1"/>
</g>
<g>
	<polygon points="9.9,9.4 7.6,8.6 6.8,6.3 6,8.6 3.9,9.4 6,10 6.8,12.3 7.6,10 	"/>
</g>
<g>
	<polygon points="22.4,18.9 20.9,18.3 20.4,16.9 19.8,18.3 18.4,18.9 19.8,19.4 20.4,20.9 20.9,19.4 	"/>
</g>
</svg>
