<?xml version="1.0" encoding="utf-8"?>
<!-- Generator: Adobe Illustrator 24.0.2, SVG Export Plug-In . SVG Version: 6.00 Build 0)  -->
<svg version="1.1" id="Layer_1" xmlns="http://www.w3.org/2000/svg" xmlns:xlink="http://www.w3.org/1999/xlink" x="0px" y="0px"
	 viewBox="0 0 24 24" style="enable-background:new 0 0 24 24;" xml:space="preserve">
<style type="text/css">
	.st0{fill-rule:evenodd;clip-rule:evenodd;}
</style>
<g>
	<path class="st0" d="M6.9,18.4h5l1.4-1.4c0.2-0.2,0.2-0.6,0-0.8l-4.1-4.1c-0.2-0.2-0.6-0.2-0.8,0l-3.5,3.5c-0.2,0.2-0.2,0.6,0,0.8
		L6.9,18.4L6.9,18.4z M13.5,18.4h7.9v1.5H12h-1.7h-2H6.6H6.5l-3.7-3.7c-0.2-0.2-0.2-0.6,0-0.8L13.9,4.3c0.2-0.2,0.6-0.2,0.8,0l6,6.1
		c0.2,0.2,0.2,0.6,0,0.8L13.5,18.4L13.5,18.4z"/>
</g>
</svg>
